<svg width="21" height="20" viewBox="0 0 21 20" fill="none" xmlns="http://www.w3.org/2000/svg">
<path d="M19.43 0H1.02998C0.58748 0 0.22998 0.3575 0.22998 0.8V19.2C0.22998 19.6425 0.58748 20 1.02998 20H19.43C19.8725 20 20.23 19.6425 20.23 19.2V0.8C20.23 0.3575 19.8725 0 19.43 0ZM11.1425 12.77C10.045 14.315 7.83998 14.765 6.11998 14.1025C4.39498 13.445 3.16998 11.6225 3.31748 9.765C3.35498 7.4925 5.44748 5.5 7.71998 5.5775C8.80998 5.5275 9.83498 6 10.67 6.6675C10.3125 7.0725 9.94498 7.4625 9.54998 7.825C8.54748 7.1325 7.11998 6.935 6.11748 7.735C4.68248 8.7275 4.61748 11.07 5.99748 12.1375C7.33998 13.355 9.87748 12.75 10.25 10.885C9.40998 10.8725 8.56498 10.885 7.72498 10.8575C7.72248 10.355 7.71998 9.855 7.72248 9.3525C9.12748 9.3475 10.535 9.345 11.9425 9.3575C12.025 10.54 11.8675 11.795 11.1425 12.77ZM17.205 10.6125C16.785 10.6175 16.365 10.62 15.945 10.6225C15.94 11.0425 15.9375 11.4625 15.9375 11.8825H14.68C14.675 11.4625 14.675 11.045 14.6725 10.625C14.2525 10.62 13.8325 10.6175 13.4125 10.6125V9.36C13.8325 9.355 14.2525 9.3525 14.6725 9.3525C14.675 8.9325 14.68 8.5125 14.6825 8.0925H15.9375L15.945 9.3525C16.365 9.3575 16.785 9.3575 17.205 9.36V10.6125Z" fill="url(#paint0_linear_3_34)"/>
<defs>
<linearGradient id="paint0_linear_3_34" x1="10.23" y1="0" x2="10.23" y2="20" gradientUnits="userSpaceOnUse">
<stop stop-color="#F0745E"/>
<stop offset="1" stop-color="#FF330F"/>
</linearGradient>
</defs>
</svg>
