<?xml version="1.0" standalone="no"?>
<svg xmlns:xlink="http://www.w3.org/1999/xlink" id="wave" style="transform:rotate(0deg); transition: 0.3s" viewBox="0 0 1440 480" version="1.1" xmlns="http://www.w3.org/2000/svg"><defs><linearGradient id="sw-gradient-0" x1="0" x2="0" y1="1" y2="0"><stop stop-color="rgba(114.209, 114.209, 114.209, 1)" offset="0%"/><stop stop-color="rgba(0, 0, 0, 1)" offset="100%"/></linearGradient></defs><path style="transform:translate(0, 0px); opacity:1" fill="url(#sw-gradient-0)" d="M0,96L40,128C80,160,160,224,240,272C320,320,400,352,480,320C560,288,640,192,720,184C800,176,880,256,960,280C1040,304,1120,272,1200,216C1280,160,1360,80,1440,112C1520,144,1600,288,1680,304C1760,320,1840,208,1920,176C2000,144,2080,192,2160,208C2240,224,2320,208,2400,216C2480,224,2560,256,2640,264C2720,272,2800,256,2880,232C2960,208,3040,176,3120,200C3200,224,3280,304,3360,336C3440,368,3520,352,3600,288C3680,224,3760,112,3840,120C3920,128,4000,256,4080,288C4160,320,4240,256,4320,192C4400,128,4480,64,4560,88C4640,112,4720,224,4800,264C4880,304,4960,272,5040,248C5120,224,5200,208,5280,200C5360,192,5440,192,5520,184C5600,176,5680,160,5720,152L5760,144L5760,480L5720,480C5680,480,5600,480,5520,480C5440,480,5360,480,5280,480C5200,480,5120,480,5040,480C4960,480,4880,480,4800,480C4720,480,4640,480,4560,480C4480,480,4400,480,4320,480C4240,480,4160,480,4080,480C4000,480,3920,480,3840,480C3760,480,3680,480,3600,480C3520,480,3440,480,3360,480C3280,480,3200,480,3120,480C3040,480,2960,480,2880,480C2800,480,2720,480,2640,480C2560,480,2480,480,2400,480C2320,480,2240,480,2160,480C2080,480,2000,480,1920,480C1840,480,1760,480,1680,480C1600,480,1520,480,1440,480C1360,480,1280,480,1200,480C1120,480,1040,480,960,480C880,480,800,480,720,480C640,480,560,480,480,480C400,480,320,480,240,480C160,480,80,480,40,480L0,480Z"/></svg>